<svg width="1024" height="1024" viewBox="0 0 1024 1024" fill="none" xmlns="http://www.w3.org/2000/svg">
<path d="M976.982 480.512L723.855 386.816L629.334 77.0276C625.693 65.0809 614.628 56.8889 602.141 56.8889C589.654 56.8889 578.589 65.0809 574.948 77.0276L480.456 386.816L227.3 480.512C216.121 484.665 208.726 495.275 208.726 507.193C208.726 519.083 216.121 529.749 227.3 533.874L480.313 627.541L574.863 946.773C578.447 958.834 589.54 967.111 602.141 967.111C614.713 967.111 625.835 958.834 629.419 946.745L723.968 627.513L977.01 533.845C988.132 529.749 995.556 519.111 995.556 507.193C995.556 495.303 988.132 484.665 976.982 480.512Z" fill="#FFAC33"/>
<path d="M408.092 793.43L342.272 769.081L316.672 675.215C313.316 662.813 302.08 654.223 289.252 654.223C276.423 654.223 265.188 662.813 261.803 675.186L236.203 769.053L170.411 793.401C159.232 797.526 151.836 808.192 151.836 820.082C151.836 831.972 159.232 842.639 170.411 846.763L235.861 871.026L261.66 974.052C264.846 986.681 276.196 995.556 289.252 995.556C302.308 995.556 313.657 986.681 316.843 974.023L342.642 870.998L408.092 846.735C419.271 842.639 426.667 831.972 426.667 820.082C426.667 808.192 419.271 797.526 408.092 793.43ZM284.7 177.238L217.458 152.349L192.54 85.0776C188.416 73.899 177.778 66.5034 165.86 66.5034C153.97 66.5034 143.332 73.899 139.179 85.0776L114.29 152.349L47.0187 177.238C35.84 181.391 28.4445 192.029 28.4445 203.919C28.4445 215.808 35.84 226.475 47.0187 230.599L114.29 255.488L139.179 322.759C143.332 333.938 153.97 341.334 165.86 341.334C177.749 341.334 188.388 333.938 192.54 322.759L217.429 255.488L284.7 230.599C295.879 226.447 303.275 215.808 303.275 203.919C303.275 192.029 295.879 181.391 284.7 177.238Z" fill="#FFCC4D"/>
</svg>
